# Blender 4.0.2
# www.blender.org
mtllib tree3.mtl
o Cylinder
v 0.528312 -0.491592 -0.804686
v 0.443164 -0.003804 -0.863259
v 0.741763 -0.547194 -0.748396
v 0.739230 -0.092719 -0.787068
v 0.885214 -0.537099 -0.578398
v 0.940975 -0.077599 -0.553234
v 0.903871 -0.465163 -0.359626
v 0.971339 0.035781 -0.251074
v 0.790608 -0.358863 -0.175644
v 0.818725 0.204113 0.003997
v 0.588688 -0.258802 -0.096726
v 0.541426 0.363101 0.114551
v 0.375237 -0.203201 -0.153017
v 0.245360 0.452015 0.038360
v 0.231787 -0.213296 -0.323014
v 0.043615 0.436895 -0.195474
v 0.213129 -0.285231 -0.541786
v 0.013251 0.323516 -0.497634
v 0.326392 -0.391531 -0.725768
v 0.165865 0.155184 -0.752705
v 0.562154 1.294449 -0.571476
v 0.306356 1.399825 -0.633684
v 0.743522 1.309124 -0.373663
v 0.781185 1.438245 -0.115803
v 0.660756 1.632491 0.103610
v 0.428235 1.817668 0.200768
v 0.172438 1.923044 0.138560
v -0.008931 1.908369 -0.059252
v -0.046593 1.779248 -0.317112
v 0.073836 1.585002 -0.536525
v 0.541617 1.783221 -0.553825
v 0.270915 1.906530 -0.618542
v 0.736611 1.798978 -0.346016
v 0.781415 1.947782 -0.074491
v 0.658916 2.172795 0.157037
v 0.415904 2.388070 0.260133
v 0.145202 2.511378 0.195416
v -0.049792 2.495621 -0.012393
v -0.094596 2.346817 -0.283918
v 0.027903 2.121805 -0.515446
v 0.477182 3.053478 -0.436631
v 0.260750 3.175206 -0.486858
v 0.639332 3.065740 -0.273108
v 0.685263 3.207310 -0.058749
v 0.597433 3.424111 0.124568
v 0.409389 3.633334 0.206821
v 0.192957 3.755062 0.156594
v 0.030807 3.742799 -0.006929
v -0.015125 3.601230 -0.221288
v 0.072706 3.384429 -0.404604
v 0.487961 3.391173 -0.447649
v 0.265901 3.523078 -0.498904
v 0.656287 3.403445 -0.280568
v 0.706585 3.555206 -0.061480
v 0.619642 3.788489 0.125931
v 0.428667 4.014188 0.210081
v 0.206607 4.146093 0.158827
v 0.038281 4.133821 -0.008254
v -0.012016 3.982061 -0.227343
v 0.074927 3.748778 -0.414754
v 0.529608 4.426524 -0.464286
v 0.332028 4.562147 -0.509563
v 0.684629 4.436175 -0.317210
v 0.737878 4.587411 -0.124511
v 0.669015 4.822467 0.040206
v 0.504344 5.051559 0.114023
v 0.306764 5.187182 0.068747
v 0.151743 5.177532 -0.078330
v 0.098494 5.026295 -0.271029
v 0.167357 4.791239 -0.435745
v 0.581553 4.837698 -0.528121
v 0.369842 4.991700 -0.576677
v 0.750230 4.847207 -0.371169
v 0.811444 5.016596 -0.165772
v 0.741813 5.281162 0.009616
v 0.567935 5.539853 0.088003
v 0.356224 5.693855 0.039447
v 0.187547 5.684345 -0.117505
v 0.126333 5.514956 -0.322902
v 0.195963 5.250390 -0.498290
v 0.581553 4.837698 -0.528121
v 0.369842 4.991700 -0.576677
v 0.750230 4.847207 -0.371169
v 0.811444 5.016596 -0.165772
v 0.741813 5.281162 0.009616
v 0.567935 5.539853 0.088003
v 0.356224 5.693855 0.039447
v 0.187547 5.684345 -0.117505
v 0.126333 5.514956 -0.322902
v 0.195963 5.250390 -0.498290
v 0.682799 5.803700 -0.601278
v 0.515993 5.938693 -0.639874
v 0.819842 5.809568 -0.478476
v 0.874775 5.954057 -0.318374
v 0.826617 6.181975 -0.182125
v 0.693762 6.406267 -0.121772
v 0.526955 6.541260 -0.160367
v 0.389912 6.535392 -0.283170
v 0.334979 6.390903 -0.443272
v 0.383137 6.162985 -0.579521
v 0.756302 6.093106 -0.701527
v 0.567368 6.251729 -0.745486
v 0.913297 6.098955 -0.562738
v 0.978388 6.267040 -0.382131
v 0.926710 6.533159 -0.228693
v 0.778004 6.795664 -0.161031
v 0.589070 6.954286 -0.204990
v 0.432075 6.948437 -0.343780
v 0.366984 6.780352 -0.524386
v 0.418662 6.514233 -0.677825
v 0.915136 6.969313 -0.849581
v 0.768949 7.101661 -0.884146
v 1.039643 6.972332 -0.742623
v 1.094914 7.109567 -0.604127
v 1.059835 7.328596 -0.486992
v 0.947807 7.545759 -0.435961
v 0.801619 7.678106 -0.470526
v 0.677112 7.675086 -0.577484
v 0.621842 7.537853 -0.715981
v 0.656920 7.318823 -0.833116
v 1.006108 7.239866 -0.971306
v 0.843082 7.391133 -1.010112
v 1.146134 7.242601 -0.852165
v 1.209675 7.398295 -0.698196
v 1.172460 7.647476 -0.568211
v 1.048704 7.894966 -0.511859
v 0.885678 8.046233 -0.550666
v 0.745652 8.043497 -0.669807
v 0.682111 7.887804 -0.823776
v 0.719326 7.638622 -0.953761
v 1.171006 7.871260 -1.148844
v 1.031439 8.005468 -1.182437
v 1.292405 7.872747 -1.047001
v 1.349267 8.009361 -0.915809
v 1.319871 8.228921 -0.805379
v 1.215447 8.447561 -0.757892
v 1.075880 8.581770 -0.791486
v 0.954481 8.580283 -0.893329
v 0.897619 8.443668 -1.024521
v 0.927015 8.224110 -1.134950
v 1.427913 8.745424 -1.431432
v 1.320450 8.850853 -1.457480
v 1.522069 8.746170 -1.353075
v 1.566956 8.852806 -1.252339
v 1.545427 9.024602 -1.167701
v 1.465707 9.195936 -1.131491
v 1.358245 9.301365 -1.157538
v 1.264088 9.300619 -1.235895
v 1.219201 9.193983 -1.336632
v 1.240730 9.022187 -1.421269
vn 0.2343 -0.0811 -0.9688
vn 0.7648 -0.0504 -0.6423
vn 0.9920 -0.1179 -0.0458
vn 0.7620 -0.2335 0.6040
vn 0.2108 -0.3067 0.9282
vn -0.3196 -0.3265 0.8895
vn -0.7123 -0.3279 0.6206
vn -0.9298 -0.3187 0.1841
vn -0.8506 0.0247 -0.5252
vn -0.8814 -0.2776 -0.3822
vn -0.4348 -0.1818 -0.8820
vn -0.3170 -0.8926 0.3205
vn -0.7291 -0.1047 0.6763
vn -0.9912 -0.0557 0.1205
vn -0.7515 -0.0874 0.6540
vn -0.2660 -0.0786 0.9608
vn 0.3674 -0.0265 0.9297
vn 0.8991 0.0693 0.4322
vn 0.2963 0.1835 -0.9373
vn 0.9644 0.1517 -0.2168
vn 0.7168 0.1890 -0.6712
vn -0.3049 0.1247 -0.9442
vn 0.9243 0.0552 0.3776
vn 0.8635 -0.0467 0.5023
vn 0.2537 0.0456 -0.9662
vn -0.9774 -0.0938 0.1897
vn 0.3193 -0.0913 0.9432
vn 0.7265 0.0489 -0.6854
vn -0.8963 -0.0594 -0.4394
vn -0.2763 -0.1051 0.9553
vn 0.9854 0.0133 -0.1699
vn -0.3851 0.0006 -0.9229
vn 0.2053 -0.0385 -0.9779
vn 0.2751 0.1022 -0.9560
vn -0.9896 0.0561 0.1326
vn 0.4381 0.0407 0.8980
vn 0.7033 0.0946 -0.7045
vn -0.8489 0.0760 -0.5230
vn -0.2053 0.0384 0.9779
vn 0.9633 0.0768 -0.2571
vn -0.3159 0.0954 -0.9440
vn -0.7302 0.0442 0.6818
vn 0.4635 0.0481 0.8848
vn -0.9792 0.0112 0.2024
vn 0.3762 -0.0270 0.9261
vn 0.7054 -0.0510 -0.7069
vn -0.9047 -0.0064 -0.4260
vn -0.2236 0.0022 0.9747
vn 0.9813 -0.0616 -0.1826
vn -0.4239 -0.0251 -0.9054
vn -0.7106 0.0160 0.7034
vn 0.8777 -0.0553 0.4760
vn 0.6734 -0.2009 -0.7115
vn 0.6890 -0.0446 -0.7233
vn -0.8704 0.0674 -0.4877
vn -0.1565 0.1001 0.9826
vn 0.9712 -0.0437 -0.2341
vn -0.3880 0.0152 -0.9215
vn -0.7036 0.1235 0.6998
vn 0.9170 -0.0107 0.3987
vn 0.2112 -0.0242 -0.9772
vn -0.9826 0.1102 0.1492
vn -0.0000 1.0000 -0.0000
vn -0.9205 0.0041 -0.3907
vn -0.1718 0.0736 0.9824
vn 0.9734 -0.1804 -0.1413
vn -0.5080 -0.0891 -0.8567
vn -0.6879 0.1041 0.7183
vn 0.8610 -0.1035 0.4979
vn 0.1105 -0.1661 -0.9799
vn -0.9749 0.0777 0.2085
vn 0.4058 -0.0041 0.9139
vn -0.4084 0.0021 -0.9128
vn -0.6612 0.1746 0.7296
vn -0.6603 0.2917 0.6920
vn 0.9357 -0.0130 0.3526
vn 0.1592 -0.0911 -0.9830
vn -0.9662 0.2423 0.0882
vn 0.5658 0.1155 0.8164
vn 0.6648 -0.1301 -0.7356
vn -0.8421 0.1260 -0.5244
vn -0.0339 0.2358 0.9712
vn 0.9658 -0.1039 -0.2376
vn 0.9337 -0.0407 0.3558
vn 0.8179 -0.1598 0.5527
vn -0.0385 -0.3183 -0.9472
vn -0.9676 0.1252 0.2191
vn 0.4164 0.0016 0.9092
vn 0.6161 -0.3970 -0.6802
vn -0.9421 0.0014 -0.3354
vn -0.1241 0.1250 0.9844
vn 0.9460 -0.3216 -0.0416
vn -0.6176 -0.1585 -0.7703
vn -0.1205 -0.3733 -0.9198
vn 0.0773 -0.1797 -0.9807
vn -0.9444 0.3269 0.0361
vn 0.6233 0.1408 0.7692
vn 0.6355 -0.2429 -0.7329
vn -0.8345 0.1445 -0.5317
vn 0.0713 0.3250 0.9430
vn 0.9621 -0.1857 -0.1999
vn -0.4637 -0.0345 -0.8853
vn -0.6094 0.4215 0.6716
vn 0.6410 0.1424 0.7542
vn -0.9615 0.2174 0.1683
vn 0.4907 0.0473 0.8700
vn 0.5699 -0.4915 -0.6585
vn -0.9309 0.0448 -0.3626
vn -0.0290 0.2189 0.9753
vn 0.9284 -0.3715 -0.0075
vn -0.6472 -0.1587 -0.7456
vn -0.6263 0.2971 0.7207
vn 0.8292 -0.1562 0.5367
vn 0.5917 -0.4007 -0.6995
vn 0.6022 -0.3601 -0.7125
vn -0.8464 0.1414 -0.5134
vn 0.1316 0.3673 0.9207
vn 0.9542 -0.2664 -0.1361
vn -0.5316 -0.0737 -0.8438
vn -0.5687 0.4948 0.6570
vn 0.9177 -0.0735 0.3903
vn -0.0177 -0.2663 -0.9637
vn -0.9306 0.3659 0.0141
vn 0.5793 0.4175 -0.7001
vn -0.8439 0.1466 -0.5161
vn 0.1675 0.3940 0.9037
vn 0.9498 -0.2911 -0.1151
vn -0.5502 -0.0823 -0.8310
vn -0.5450 0.5395 0.6418
vn 0.9153 -0.0797 0.3947
vn -0.0522 -0.2932 -0.9546
vn -0.9203 0.3910 -0.0083
vn 0.6568 0.1494 0.7392
vn 0.2267 -0.0770 -0.9709
vn 0.7577 -0.0564 -0.6501
vn 0.9911 -0.1218 -0.0539
vn 0.7597 -0.2318 0.6075
vn 0.1988 -0.3017 0.9325
vn -0.3259 -0.3240 0.8882
vn -0.7059 -0.3239 0.6299
vn -0.9276 -0.3095 0.2094
vn -0.8664 0.0262 -0.4987
vn -0.8943 -0.2677 -0.3585
vn -0.4496 -0.1752 -0.8759
vn -0.7218 -0.0996 0.6849
vn -0.9843 -0.0508 0.1692
vn -0.7315 -0.0824 0.6768
vn -0.2703 -0.0779 0.9596
vn 0.3575 -0.0256 0.9336
vn 0.8763 0.0729 0.4762
vn 0.3027 0.1825 -0.9355
vn 0.9746 0.1592 -0.1577
vn 0.7364 0.1947 -0.6479
vn -0.2968 0.1240 -0.9468
vn 0.9065 0.0640 0.4174
vn 0.8599 -0.0416 0.5088
vn 0.2523 0.0465 -0.9665
vn -0.9747 -0.0843 0.2071
vn 0.3206 -0.0921 0.9427
vn 0.7339 0.0553 -0.6770
vn -0.9025 -0.0513 -0.4276
vn -0.2758 -0.1054 0.9554
vn 0.9876 0.0227 -0.1556
vn -0.3883 0.0030 -0.9215
vn 0.2039 -0.0369 -0.9783
vn 0.2786 0.1014 -0.9550
vn -0.9836 0.0628 0.1693
vn 0.4231 0.0443 0.9050
vn 0.7218 0.0998 -0.6849
vn -0.8590 0.0797 -0.5058
vn -0.2148 0.0407 0.9758
vn 0.9742 0.0868 -0.2083
vn -0.3093 0.0940 -0.9463
vn -0.7111 0.0492 0.7014
vn 0.4536 0.0521 0.8897
vn -0.9773 0.0194 0.2109
vn 0.3758 -0.0264 0.9263
vn 0.7111 -0.0456 -0.7017
vn -0.9068 0.0007 -0.4216
vn -0.2244 0.0030 0.9745
vn 0.9830 -0.0532 -0.1755
vn -0.4254 -0.0226 -0.9047
vn -0.7051 0.0206 0.7088
vn 0.8764 -0.0500 0.4790
vn 0.6814 -0.1956 -0.7053
vn 0.7054 -0.0397 -0.7077
vn -0.8786 0.0732 -0.4718
vn -0.1653 0.1029 0.9809
vn 0.9790 -0.0340 -0.2012
vn -0.3903 0.0161 -0.9205
vn -0.6868 0.1280 0.7155
vn 0.9063 -0.0017 0.4225
vn 0.2081 -0.0233 -0.9778
vn -0.9770 0.1181 0.1773
vn -0.9231 0.0118 -0.3843
vn -0.1736 0.0749 0.9820
vn 0.9758 -0.1733 -0.1336
vn -0.5114 -0.0846 -0.8552
vn -0.6805 0.1083 0.7247
vn 0.8597 -0.0992 0.5010
vn 0.1067 -0.1626 -0.9809
vn -0.9719 0.0856 0.2191
vn 0.4052 -0.0033 0.9142
vn -0.4096 0.0028 -0.9122
vn -0.6555 0.1779 0.7340
vn -0.6444 0.2961 0.7050
vn 0.9283 -0.0022 0.3718
vn 0.1551 -0.0896 -0.9838
vn -0.9627 0.2494 0.1052
vn 0.5542 0.1231 0.8232
vn 0.6796 -0.1260 -0.7227
vn -0.8459 0.1304 -0.5172
vn -0.0467 0.2415 0.9693
vn 0.9727 -0.0940 -0.2123
vn 0.9294 -0.0316 0.3678
vn 0.8178 -0.1580 0.5534
vn -0.0422 -0.3132 -0.9488
vn -0.9653 0.1316 0.2254
vn 0.4163 0.0019 0.9092
vn 0.6230 -0.3926 -0.6765
vn -0.9432 0.0083 -0.3321
vn -0.1254 0.1263 0.9840
vn 0.9475 -0.3173 -0.0388
vn -0.6198 -0.1527 -0.7697
vn -0.1233 -0.3692 -0.9211
vn 0.0717 -0.1771 -0.9816
vn -0.9419 0.3326 0.0464
vn 0.6148 0.1486 0.7746
vn 0.6480 -0.2396 -0.7229
vn -0.8366 0.1481 -0.5274
vn 0.0594 0.3317 0.9415
vn 0.9669 -0.1776 -0.1832
vn -0.4660 -0.0326 -0.8842
vn -0.5958 0.4250 0.6815
vn 0.6378 0.1467 0.7561
vn -0.9598 0.2217 0.1720
vn 0.4903 0.0485 0.8702
vn 0.5753 -0.4886 -0.6560
vn -0.9313 0.0492 -0.3610
vn -0.0307 0.2207 0.9749
vn 0.9296 -0.3686 -0.0057
vn -0.6486 -0.1546 -0.7453
vn -0.6217 0.2995 0.7238
vn 0.8291 -0.1545 0.5372
vn 0.5881 -0.4001 -0.7029
vn 0.6091 -0.3581 -0.7077
vn -0.8472 0.1438 -0.5114
vn 0.1258 0.3716 0.9198
vn 0.9563 -0.2621 -0.1297
vn -0.5333 -0.0717 -0.8429
vn -0.5613 0.4970 0.6618
vn 0.9164 -0.0689 0.3944
vn -0.0216 -0.2639 -0.9643
vn -0.9292 0.3691 0.0183
vn -0.8445 0.1478 -0.5148
vn 0.1636 0.3963 0.9034
vn 0.9509 -0.2890 -0.1112
vn -0.5514 -0.0811 -0.8303
vn -0.5408 0.5402 0.6447
vn 0.9144 -0.0774 0.3974
vn -0.0549 -0.2919 -0.9549
vn -0.9197 0.3926 -0.0057
vn 0.6545 0.1517 0.7407
vt 1.000000 0.500000
vt 0.900000 1.000000
vt 0.900000 0.500000
vt 0.800000 0.500000
vt 0.800000 1.000000
vt 0.700000 0.500000
vt 0.700000 1.000000
vt 0.600000 0.500000
vt 0.600000 1.000000
vt 0.500000 0.500000
vt 0.500000 1.000000
vt 0.400000 0.500000
vt 0.300000 1.000000
vt 0.300000 0.500000
vt 0.200000 1.000000
vt 0.200000 0.500000
vt 0.100000 1.000000
vt 0.100000 0.500000
vt -0.000000 1.000000
vt -0.000000 0.500000
vt 0.978254 0.175836
vt 0.521746 0.175836
vt 0.608932 0.444164
vt 0.400000 1.000000
vt 1.000000 1.000000
vt 0.021746 0.324164
vt 0.391068 0.055836
vt 0.478254 0.324164
vt 0.750000 0.490000
vt 0.891068 0.444164
vt 0.978254 0.324164
vt 0.891068 0.055836
vt 0.750000 0.010000
vt 0.608932 0.055836
vt 0.521746 0.324164
vt 0.391068 0.444164
vt 0.250000 0.490000
vt 0.108932 0.444164
vt 0.021746 0.175836
vt 0.108932 0.055836
vt 0.250000 0.010000
vt 0.478254 0.175836
s 0
f 1/1/1 4/2/1 3/3/1
f 4/2/2 5/4/2 3/3/2
f 6/5/3 7/6/3 5/4/3
f 8/7/4 9/8/4 7/6/4
f 10/9/5 11/10/5 9/8/5
f 12/11/6 13/12/6 11/10/6
f 13/12/7 16/13/7 15/14/7
f 15/14/8 18/15/8 17/16/8
f 18/15/9 30/17/9 20/17/9
f 17/16/10 20/17/10 19/18/10
f 19/18/11 2/19/11 1/20/11
f 7/21/12 15/22/12 19/23/12
f 27/24/13 38/13/13 28/13/13
f 16/13/14 29/15/14 18/15/14
f 14/24/15 28/13/15 16/13/15
f 14/24/16 26/11/16 27/24/16
f 12/11/17 25/9/17 26/11/17
f 10/9/18 24/7/18 25/9/18
f 2/25/19 21/2/19 4/2/19
f 8/7/20 23/5/20 24/7/20
f 6/5/21 21/2/21 23/5/21
f 20/17/22 22/19/22 2/19/22
f 35/9/23 44/7/23 45/9/23
f 25/9/24 34/7/24 35/9/24
f 22/25/25 31/2/25 21/2/25
f 28/13/26 39/15/26 29/15/26
f 26/11/27 35/9/27 36/11/27
f 23/5/28 31/2/28 33/5/28
f 29/15/29 40/17/29 30/17/29
f 27/24/30 36/11/30 37/24/30
f 24/7/31 33/5/31 34/7/31
f 30/17/32 32/19/32 22/19/32
f 42/25/33 51/2/33 41/2/33
f 32/25/34 41/2/34 31/2/34
f 38/13/35 49/15/35 39/15/35
f 36/11/36 45/9/36 46/11/36
f 33/5/37 41/2/37 43/5/37
f 39/15/38 50/17/38 40/17/38
f 37/24/39 46/11/39 47/24/39
f 34/7/40 43/5/40 44/7/40
f 40/17/41 42/19/41 32/19/41
f 37/24/42 48/13/42 38/13/42
f 56/11/43 65/9/43 66/11/43
f 48/13/44 59/15/44 49/15/44
f 46/11/45 55/9/45 56/11/45
f 43/5/46 51/2/46 53/5/46
f 49/15/47 60/17/47 50/17/47
f 47/24/48 56/11/48 57/24/48
f 44/7/49 53/5/49 54/7/49
f 50/17/50 52/19/50 42/19/50
f 47/24/51 58/13/51 48/13/51
f 45/9/52 54/7/52 55/9/52
f 63/5/53 71/2/53 73/5/53
f 53/5/54 61/2/54 63/5/54
f 59/15/55 70/17/55 60/17/55
f 57/24/56 66/11/56 67/24/56
f 54/7/57 63/5/57 64/7/57
f 60/17/58 62/19/58 52/19/58
f 57/24/59 68/13/59 58/13/59
f 55/9/60 64/7/60 65/9/60
f 52/25/61 61/2/61 51/2/61
f 58/13/62 69/15/62 59/15/62
f 74/7/63 83/5/63 84/7/63
f 69/15/64 80/17/64 70/17/64
f 67/24/65 76/11/65 77/24/65
f 64/7/66 73/5/66 74/7/66
f 70/17/67 72/19/67 62/19/67
f 67/24/68 78/13/68 68/13/68
f 65/9/69 74/7/69 75/9/69
f 62/25/70 71/2/70 61/2/70
f 68/13/71 79/15/71 69/15/71
f 66/11/72 75/9/72 76/11/72
f 90/17/73 92/19/73 82/19/73
f 72/19/63 90/17/63 82/19/63
f 78/13/63 87/24/63 88/13/63
f 75/9/63 84/7/63 85/9/63
f 71/2/63 82/25/63 81/2/63
f 79/15/63 88/13/63 89/15/63
f 76/11/63 85/9/63 86/11/63
f 73/5/63 81/2/63 83/5/63
f 80/17/63 89/15/63 90/17/63
f 77/24/63 86/11/63 87/24/63
f 97/24/74 108/13/74 98/13/74
f 87/24/75 98/13/75 88/13/75
f 85/9/76 94/7/76 95/9/76
f 82/25/77 91/2/77 81/2/77
f 88/13/78 99/15/78 89/15/78
f 86/11/79 95/9/79 96/11/79
f 83/5/80 91/2/80 93/5/80
f 89/15/81 100/17/81 90/17/81
f 87/24/82 96/11/82 97/24/82
f 84/7/83 93/5/83 94/7/83
f 105/9/84 114/7/84 115/9/84
f 95/9/85 104/7/85 105/9/85
f 92/25/86 101/2/86 91/2/86
f 98/13/87 109/15/87 99/15/87
f 96/11/88 105/9/88 106/11/88
f 93/5/89 101/2/89 103/5/89
f 99/15/90 110/17/90 100/17/90
f 97/24/91 106/11/91 107/24/91
f 94/7/92 103/5/92 104/7/92
f 100/17/93 102/19/93 92/19/93
f 112/25/94 121/2/94 111/2/94
f 102/25/95 111/2/95 101/2/95
f 108/13/96 119/15/96 109/15/96
f 106/11/97 115/9/97 116/11/97
f 103/5/98 111/2/98 113/5/98
f 109/15/99 120/17/99 110/17/99
f 107/24/100 116/11/100 117/24/100
f 104/7/101 113/5/101 114/7/101
f 110/17/102 112/19/102 102/19/102
f 107/24/103 118/13/103 108/13/103
f 126/11/104 135/9/104 136/11/104
f 118/13/105 129/15/105 119/15/105
f 116/11/106 125/9/106 126/11/106
f 113/5/107 121/2/107 123/5/107
f 119/15/108 130/17/108 120/17/108
f 117/24/109 126/11/109 127/24/109
f 114/7/110 123/5/110 124/7/110
f 120/17/111 122/19/111 112/19/111
f 117/24/112 128/13/112 118/13/112
f 115/9/113 124/7/113 125/9/113
f 131/2/114 143/5/114 133/5/114
f 123/5/115 131/2/115 133/5/115
f 129/15/116 140/17/116 130/17/116
f 127/24/117 136/11/117 137/24/117
f 124/7/118 133/5/118 134/7/118
f 130/17/119 132/19/119 122/19/119
f 127/24/120 138/13/120 128/13/120
f 125/9/121 134/7/121 135/9/121
f 122/25/122 131/2/122 121/2/122
f 128/13/123 139/15/123 129/15/123
f 149/26/124 145/27/124 143/28/124
f 139/15/125 150/17/125 140/17/125
f 137/24/126 146/11/126 147/24/126
f 134/7/127 143/5/127 144/7/127
f 140/17/128 142/19/128 132/19/128
f 137/24/129 148/13/129 138/13/129
f 135/9/130 144/7/130 145/9/130
f 132/25/131 141/2/131 131/2/131
f 138/13/132 149/15/132 139/15/132
f 136/11/133 145/9/133 146/11/133
f 1/1/134 2/25/134 4/2/134
f 4/2/135 6/5/135 5/4/135
f 6/5/136 8/7/136 7/6/136
f 8/7/137 10/9/137 9/8/137
f 10/9/138 12/11/138 11/10/138
f 12/11/139 14/24/139 13/12/139
f 13/12/140 14/24/140 16/13/140
f 15/14/141 16/13/141 18/15/141
f 18/15/142 29/15/142 30/17/142
f 17/16/143 18/15/143 20/17/143
f 19/18/144 20/17/144 2/19/144
f 19/23/12 1/29/12 3/30/12
f 3/30/12 5/31/12 7/21/12
f 7/21/12 9/32/12 11/33/12
f 11/33/12 13/34/12 15/22/12
f 15/22/12 17/35/12 19/23/12
f 19/23/12 3/30/12 7/21/12
f 7/21/12 11/33/12 15/22/12
f 27/24/145 37/24/145 38/13/145
f 16/13/146 28/13/146 29/15/146
f 14/24/147 27/24/147 28/13/147
f 14/24/148 12/11/148 26/11/148
f 12/11/149 10/9/149 25/9/149
f 10/9/150 8/7/150 24/7/150
f 2/25/151 22/25/151 21/2/151
f 8/7/152 6/5/152 23/5/152
f 6/5/153 4/2/153 21/2/153
f 20/17/154 30/17/154 22/19/154
f 35/9/155 34/7/155 44/7/155
f 25/9/156 24/7/156 34/7/156
f 22/25/157 32/25/157 31/2/157
f 28/13/158 38/13/158 39/15/158
f 26/11/159 25/9/159 35/9/159
f 23/5/160 21/2/160 31/2/160
f 29/15/161 39/15/161 40/17/161
f 27/24/162 26/11/162 36/11/162
f 24/7/163 23/5/163 33/5/163
f 30/17/164 40/17/164 32/19/164
f 42/25/165 52/25/165 51/2/165
f 32/25/166 42/25/166 41/2/166
f 38/13/167 48/13/167 49/15/167
f 36/11/168 35/9/168 45/9/168
f 33/5/169 31/2/169 41/2/169
f 39/15/170 49/15/170 50/17/170
f 37/24/171 36/11/171 46/11/171
f 34/7/172 33/5/172 43/5/172
f 40/17/173 50/17/173 42/19/173
f 37/24/174 47/24/174 48/13/174
f 56/11/175 55/9/175 65/9/175
f 48/13/176 58/13/176 59/15/176
f 46/11/177 45/9/177 55/9/177
f 43/5/178 41/2/178 51/2/178
f 49/15/179 59/15/179 60/17/179
f 47/24/180 46/11/180 56/11/180
f 44/7/181 43/5/181 53/5/181
f 50/17/182 60/17/182 52/19/182
f 47/24/183 57/24/183 58/13/183
f 45/9/184 44/7/184 54/7/184
f 63/5/185 61/2/185 71/2/185
f 53/5/186 51/2/186 61/2/186
f 59/15/187 69/15/187 70/17/187
f 57/24/188 56/11/188 66/11/188
f 54/7/189 53/5/189 63/5/189
f 60/17/190 70/17/190 62/19/190
f 57/24/191 67/24/191 68/13/191
f 55/9/192 54/7/192 64/7/192
f 52/25/193 62/25/193 61/2/193
f 58/13/194 68/13/194 69/15/194
f 74/7/63 73/5/63 83/5/63
f 69/15/195 79/15/195 80/17/195
f 67/24/196 66/11/196 76/11/196
f 64/7/197 63/5/197 73/5/197
f 70/17/198 80/17/198 72/19/198
f 67/24/199 77/24/199 78/13/199
f 65/9/200 64/7/200 74/7/200
f 62/25/201 72/25/201 71/2/201
f 68/13/202 78/13/202 79/15/202
f 66/11/203 65/9/203 75/9/203
f 90/17/204 100/17/204 92/19/204
f 72/19/63 80/17/63 90/17/63
f 78/13/63 77/24/63 87/24/63
f 75/9/63 74/7/63 84/7/63
f 71/2/63 72/25/63 82/25/63
f 79/15/63 78/13/63 88/13/63
f 76/11/63 75/9/63 85/9/63
f 73/5/63 71/2/63 81/2/63
f 80/17/63 79/15/63 89/15/63
f 77/24/63 76/11/63 86/11/63
f 97/24/205 107/24/205 108/13/205
f 87/24/206 97/24/206 98/13/206
f 85/9/207 84/7/207 94/7/207
f 82/25/208 92/25/208 91/2/208
f 88/13/209 98/13/209 99/15/209
f 86/11/210 85/9/210 95/9/210
f 83/5/211 81/2/211 91/2/211
f 89/15/212 99/15/212 100/17/212
f 87/24/213 86/11/213 96/11/213
f 84/7/214 83/5/214 93/5/214
f 105/9/215 104/7/215 114/7/215
f 95/9/216 94/7/216 104/7/216
f 92/25/217 102/25/217 101/2/217
f 98/13/218 108/13/218 109/15/218
f 96/11/219 95/9/219 105/9/219
f 93/5/220 91/2/220 101/2/220
f 99/15/221 109/15/221 110/17/221
f 97/24/222 96/11/222 106/11/222
f 94/7/223 93/5/223 103/5/223
f 100/17/224 110/17/224 102/19/224
f 112/25/225 122/25/225 121/2/225
f 102/25/226 112/25/226 111/2/226
f 108/13/227 118/13/227 119/15/227
f 106/11/228 105/9/228 115/9/228
f 103/5/229 101/2/229 111/2/229
f 109/15/230 119/15/230 120/17/230
f 107/24/231 106/11/231 116/11/231
f 104/7/232 103/5/232 113/5/232
f 110/17/233 120/17/233 112/19/233
f 107/24/234 117/24/234 118/13/234
f 126/11/235 125/9/235 135/9/235
f 118/13/236 128/13/236 129/15/236
f 116/11/237 115/9/237 125/9/237
f 113/5/238 111/2/238 121/2/238
f 119/15/239 129/15/239 130/17/239
f 117/24/240 116/11/240 126/11/240
f 114/7/241 113/5/241 123/5/241
f 120/17/242 130/17/242 122/19/242
f 117/24/243 127/24/243 128/13/243
f 115/9/244 114/7/244 124/7/244
f 131/2/245 141/2/245 143/5/245
f 123/5/246 121/2/246 131/2/246
f 129/15/247 139/15/247 140/17/247
f 127/24/248 126/11/248 136/11/248
f 124/7/249 123/5/249 133/5/249
f 130/17/250 140/17/250 132/19/250
f 127/24/251 137/24/251 138/13/251
f 125/9/252 124/7/252 134/7/252
f 122/25/253 132/25/253 131/2/253
f 128/13/254 138/13/254 139/15/254
f 143/28/124 141/36/124 142/37/124
f 142/37/124 150/38/124 149/26/124
f 149/26/124 148/39/124 147/40/124
f 147/40/124 146/41/124 145/27/124
f 145/27/124 144/42/124 143/28/124
f 143/28/124 142/37/124 149/26/124
f 149/26/124 147/40/124 145/27/124
f 139/15/255 149/15/255 150/17/255
f 137/24/256 136/11/256 146/11/256
f 134/7/257 133/5/257 143/5/257
f 140/17/258 150/17/258 142/19/258
f 137/24/259 147/24/259 148/13/259
f 135/9/260 134/7/260 144/7/260
f 132/25/261 142/25/261 141/2/261
f 138/13/262 148/13/262 149/15/262
f 136/11/263 135/9/263 145/9/263
